<svg width="24" height="24" viewBox="0 0 24 24" fill="none" xmlns="http://www.w3.org/2000/svg">
    <path d="M21.333 7.61343L14.2224 2.08277C13.5984 1.59731 12.8303 1.33374 12.0397 1.33374C11.2491 1.33374 10.4811 1.59731 9.85705 2.08277L2.74505 7.61343C2.31764 7.94581 1.97184 8.37147 1.73405 8.8579C1.49627 9.34433 1.37279 9.87866 1.37305 10.4201V20.0201C1.37305 20.7273 1.654 21.4056 2.1541 21.9057C2.65419 22.4058 3.33247 22.6868 4.03971 22.6868H20.0397C20.747 22.6868 21.4252 22.4058 21.9253 21.9057C22.4254 21.4056 22.7064 20.7273 22.7064 20.0201V10.4201C22.7064 9.32277 22.1997 8.28677 21.333 7.61343Z" stroke="black" stroke-width="2" stroke-linecap="round" stroke-linejoin="round"/>
</svg>

