<svg width="130" height="80" viewBox="0 0 130 80" fill="none" xmlns="http://www.w3.org/2000/svg">
    <path d="M11.7215 23.2599C11.7215 27.3715 -0.610156 25.7269 0.0236182 32.6579C0.502498 37.8949 2.88869 37.7664 7.08489 38.9111C10.0147 39.7103 11.7215 42.5621 11.7215 45.599V52.2586C11.7215 58.8861 17.0941 64.2584 23.7215 64.2584H83.3267C86.652 64.2584 90.5122 74.4362 93.8014 78.4241C94.6856 79.4961 95.6276 78.6 95.3335 77.242C94.3292 72.6048 93.6655 64.2584 101.051 64.2584H118C124.627 64.2584 130 58.8859 130 52.2584V12C130 5.37258 124.627 0 118 0H83.6811C80.0182 0 78.8366 12.0999 73.7557 12.0999C68.6748 12.0999 67.8477 3.28928 64.7755 0H23.7215C17.0941 0 11.7215 5.37259 11.7215 12V23.2599Z" fill="#37668A"/>
</svg>
