<svg width="285" height="285" viewBox="0 0 285 285" fill="none" xmlns="http://www.w3.org/2000/svg">
    <rect width="285" height="285" rx="24" fill="#D9DBDF"/>
    <path d="M101.375 113.125H107.25C110.366 113.125 113.355 111.887 115.559 109.683C117.762 107.48 119 104.491 119 101.375C119 99.8166 119.619 98.3223 120.721 97.2205C121.823 96.1187 123.317 95.4998 124.875 95.4998H160.125C161.683 95.4998 163.177 96.1187 164.279 97.2205C165.381 98.3223 166 99.8166 166 101.375C166 104.491 167.238 107.48 169.441 109.683C171.645 111.887 174.634 113.125 177.75 113.125H183.625C186.741 113.125 189.73 114.363 191.934 116.566C194.137 118.77 195.375 121.758 195.375 124.875V177.75C195.375 180.866 194.137 183.855 191.934 186.058C189.73 188.262 186.741 189.5 183.625 189.5H101.375C98.2587 189.5 95.27 188.262 93.0665 186.058C90.8629 183.855 89.625 180.866 89.625 177.75V124.875C89.625 121.758 90.8629 118.77 93.0665 116.566C95.27 114.363 98.2587 113.125 101.375 113.125" stroke="white" stroke-width="7.9375" stroke-linecap="round" stroke-linejoin="round"/>
    <path d="M127.813 160.125C129.728 162.079 132.013 163.631 134.535 164.691C137.057 165.751 139.765 166.297 142.501 166.297C145.237 166.297 147.945 165.751 150.467 164.691C152.989 163.631 155.274 162.079 157.188 160.125" stroke="white" stroke-width="7.9375" stroke-linecap="round" stroke-linejoin="round"/>
    <path d="M160.125 136.625H160.183" stroke="white" stroke-width="7.9375" stroke-linecap="round" stroke-linejoin="round"/>
    <path d="M124.875 136.625H124.933" stroke="white" stroke-width="7.9375" stroke-linecap="round" stroke-linejoin="round"/>
</svg>
