<svg width="386" height="387" viewBox="0 0 386 387" fill="none" xmlns="http://www.w3.org/2000/svg">
    <path d="M20.1343 52.7567L0.172806 155.395C-0.963488 187.833 3.13217 201.759 23.6408 209.74C25.538 210.478 27.5301 210.968 29.5336 211.329L144.177 231.977C159.986 234.93 153.005 261.012 151.492 277.822C151.229 280.75 153.588 283.393 156.117 281.894C167.383 275.218 174.338 240.617 196.88 241.271L299.316 259.488C329.85 264.454 367.208 247.766 370.009 210.838C370.805 200.34 363.792 191.759 354.626 186.581C345.99 181.702 338.323 175.194 340.885 162.83C343.826 148.637 356.477 149.225 367.017 147.163C373.699 145.856 378.898 140.866 381.678 134.651C388.733 118.877 388.654 96.5502 369.952 74.5162C363.633 67.0727 354.386 62.9852 344.793 61.1689L244.339 42.1493C240.508 41.4239 237.786 38.0433 237.556 34.151C236.708 19.8572 232.326 0 219.149 0C206.434 0 196.874 14.7904 191.961 26.1013C190.351 29.8087 186.472 32.1541 182.499 31.408L130.074 21.562C60.684 7.97464 46.1849 10.2275 29.5917 31.1443C24.6394 37.3869 21.6556 44.9348 20.1343 52.7567Z" fill="#E1E1E1"/>
    <ellipse rx="2.9695" ry="4.46061" transform="matrix(0.965819 0.259217 -0.258422 0.966032 336.122 94.6909)" fill="#A6A6A6"/>
    <ellipse rx="2.96948" ry="4.46061" transform="matrix(0.965819 0.259219 -0.25842 0.966033 348.311 97.9621)" fill="#A6A6A6"/>
    <path fill-rule="evenodd" clip-rule="evenodd" d="M343.771 110.361C344.484 110.379 345.077 109.814 345.095 109.1C345.129 107.741 344.334 106.686 343.437 105.976C342.529 105.257 341.352 104.746 340.172 104.445C338.988 104.144 337.703 104.029 336.545 104.184C335.419 104.335 334.193 104.775 333.441 105.801C333.019 106.377 333.143 107.186 333.718 107.609C334.293 108.032 335.101 107.908 335.523 107.332C335.679 107.119 336.082 106.857 336.887 106.749C337.658 106.645 338.606 106.716 339.535 106.953C340.468 107.191 341.286 107.571 341.835 108.006C342.394 108.449 342.518 108.809 342.512 109.035C342.494 109.749 343.058 110.343 343.771 110.361Z" fill="#A6A6A6"/>
    <path d="M67.8104 338.78C68.7837 338.98 69.5237 339.373 70.0304 339.96C70.5371 340.533 70.7904 341.287 70.7904 342.22C70.7904 343.433 70.3571 344.367 69.4904 345.02C68.6371 345.673 67.3771 346 65.7104 346H59.5104V332H65.3304C66.8237 332 67.9904 332.307 68.8304 332.92C69.6704 333.533 70.0904 334.42 70.0904 335.58C70.0904 336.367 69.8904 337.033 69.4904 337.58C69.0904 338.113 68.5304 338.513 67.8104 338.78ZM60.9704 338.34H65.2504C66.3304 338.34 67.1571 338.12 67.7304 337.68C68.3171 337.24 68.6104 336.6 68.6104 335.76C68.6104 334.92 68.3171 334.28 67.7304 333.84C67.1571 333.4 66.3304 333.18 65.2504 333.18H60.9704V338.34ZM65.7104 344.82C68.1237 344.82 69.3304 343.92 69.3304 342.12C69.3304 340.36 68.1237 339.48 65.7104 339.48H60.9704V344.82H65.7104ZM78.5709 339.2C79.8909 339.213 80.8975 339.507 81.5909 340.08C82.2842 340.653 82.6309 341.48 82.6309 342.56C82.6309 343.68 82.2575 344.54 81.5109 345.14C80.7642 345.74 79.6975 346.033 78.3109 346.02L74.1509 346V335.48H75.5709V339.16L78.5709 339.2ZM84.3909 335.48H85.8109V346H84.3909V335.48ZM78.2309 344.94C79.2042 344.953 79.9375 344.76 80.4309 344.36C80.9375 343.947 81.1909 343.347 81.1909 342.56C81.1909 341.787 80.9442 341.213 80.4509 340.84C79.9575 340.467 79.2175 340.273 78.2309 340.26L75.5709 340.22V344.9L78.2309 344.94ZM95.0884 335.48H96.5084V340.14H103.128V335.48H104.548V346H103.128V341.36H96.5084V346H95.0884V335.48ZM117.784 341.18H108.984C109.064 342.273 109.484 343.16 110.244 343.84C111.004 344.507 111.964 344.84 113.124 344.84C113.778 344.84 114.378 344.727 114.924 344.5C115.471 344.26 115.944 343.913 116.344 343.46L117.144 344.38C116.678 344.94 116.091 345.367 115.384 345.66C114.691 345.953 113.924 346.1 113.084 346.1C112.004 346.1 111.044 345.873 110.204 345.42C109.378 344.953 108.731 344.313 108.264 343.5C107.798 342.687 107.564 341.767 107.564 340.74C107.564 339.713 107.784 338.793 108.224 337.98C108.678 337.167 109.291 336.533 110.064 336.08C110.851 335.627 111.731 335.4 112.704 335.4C113.678 335.4 114.551 335.627 115.324 336.08C116.098 336.533 116.704 337.167 117.144 337.98C117.584 338.78 117.804 339.7 117.804 340.74L117.784 341.18ZM112.704 336.62C111.691 336.62 110.838 336.947 110.144 337.6C109.464 338.24 109.078 339.08 108.984 340.12H116.444C116.351 339.08 115.958 338.24 115.264 337.6C114.584 336.947 113.731 336.62 112.704 336.62ZM130.522 346.1C129.509 346.1 128.595 345.873 127.782 345.42C126.969 344.953 126.329 344.313 125.862 343.5C125.395 342.687 125.162 341.767 125.162 340.74C125.162 339.713 125.395 338.793 125.862 337.98C126.329 337.167 126.969 336.533 127.782 336.08C128.595 335.627 129.509 335.4 130.522 335.4C131.535 335.4 132.449 335.627 133.262 336.08C134.075 336.533 134.709 337.167 135.162 337.98C135.629 338.793 135.862 339.713 135.862 340.74C135.862 341.767 135.629 342.687 135.162 343.5C134.709 344.313 134.075 344.953 133.262 345.42C132.449 345.873 131.535 346.1 130.522 346.1ZM130.522 344.84C131.269 344.84 131.935 344.673 132.522 344.34C133.122 343.993 133.589 343.507 133.922 342.88C134.255 342.253 134.422 341.54 134.422 340.74C134.422 339.94 134.255 339.227 133.922 338.6C133.589 337.973 133.122 337.493 132.522 337.16C131.935 336.813 131.269 336.64 130.522 336.64C129.775 336.64 129.102 336.813 128.502 337.16C127.915 337.493 127.449 337.973 127.102 338.6C126.769 339.227 126.602 339.94 126.602 340.74C126.602 341.54 126.769 342.253 127.102 342.88C127.449 343.507 127.915 343.993 128.502 344.34C129.102 344.673 129.775 344.84 130.522 344.84ZM148.337 335.48V346H146.917V336.74H140.317V346H138.897V335.48H148.337ZM161.314 335.48L156.054 347.26C155.627 348.247 155.134 348.947 154.574 349.36C154.014 349.773 153.34 349.98 152.554 349.98C152.047 349.98 151.574 349.9 151.134 349.74C150.694 349.58 150.314 349.34 149.994 349.02L150.654 347.96C151.187 348.493 151.827 348.76 152.574 348.76C153.054 348.76 153.46 348.627 153.794 348.36C154.14 348.093 154.46 347.64 154.754 347L155.214 345.98L150.514 335.48H151.994L155.954 344.42L159.914 335.48H161.314ZM168.47 335.74C169.443 335.74 170.31 335.96 171.07 336.4C171.843 336.827 172.443 337.433 172.87 338.22C173.296 338.993 173.51 339.88 173.51 340.88C173.51 341.907 173.283 342.82 172.83 343.62C172.39 344.407 171.77 345.02 170.97 345.46C170.17 345.9 169.25 346.12 168.21 346.12C166.463 346.12 165.11 345.507 164.15 344.28C163.19 343.053 162.71 341.36 162.71 339.2C162.71 336.947 163.136 335.22 163.99 334.02C164.856 332.82 166.203 332.007 168.03 331.58L172.75 330.5L172.99 331.8L168.55 332.82C167.043 333.153 165.936 333.747 165.23 334.6C164.523 335.44 164.136 336.687 164.07 338.34C164.496 337.527 165.09 336.893 165.85 336.44C166.61 335.973 167.483 335.74 168.47 335.74ZM168.25 344.94C168.983 344.94 169.636 344.773 170.21 344.44C170.796 344.093 171.25 343.613 171.57 343C171.903 342.387 172.07 341.693 172.07 340.92C172.07 340.147 171.91 339.467 171.59 338.88C171.27 338.293 170.816 337.84 170.23 337.52C169.656 337.187 168.996 337.02 168.25 337.02C167.503 337.02 166.836 337.187 166.25 337.52C165.676 337.84 165.223 338.293 164.89 338.88C164.57 339.467 164.41 340.147 164.41 340.92C164.41 341.693 164.57 342.387 164.89 343C165.223 343.613 165.683 344.093 166.27 344.44C166.856 344.773 167.516 344.94 168.25 344.94ZM185.095 335.48V346H183.675V336.74H178.635L178.495 339.34C178.388 341.527 178.135 343.207 177.735 344.38C177.335 345.553 176.621 346.14 175.595 346.14C175.315 346.14 174.975 346.087 174.575 345.98L174.675 344.76C174.915 344.813 175.081 344.84 175.175 344.84C175.721 344.84 176.135 344.587 176.415 344.08C176.695 343.573 176.881 342.947 176.975 342.2C177.068 341.453 177.148 340.467 177.215 339.24L177.395 335.48H185.095ZM189.131 335.48H190.551V343.84L197.571 335.48H198.831V346H197.411V337.64L190.411 346H189.131V335.48ZM206.721 341.32H204.321V346H202.901V335.48H204.321V340.1H206.741L210.441 335.48H211.981L207.841 340.58L212.281 346H210.601L206.721 341.32ZM218.491 346.1C217.478 346.1 216.564 345.873 215.751 345.42C214.938 344.953 214.298 344.313 213.831 343.5C213.364 342.687 213.131 341.767 213.131 340.74C213.131 339.713 213.364 338.793 213.831 337.98C214.298 337.167 214.938 336.533 215.751 336.08C216.564 335.627 217.478 335.4 218.491 335.4C219.504 335.4 220.418 335.627 221.231 336.08C222.044 336.533 222.678 337.167 223.131 337.98C223.598 338.793 223.831 339.713 223.831 340.74C223.831 341.767 223.598 342.687 223.131 343.5C222.678 344.313 222.044 344.953 221.231 345.42C220.418 345.873 219.504 346.1 218.491 346.1ZM218.491 344.84C219.238 344.84 219.904 344.673 220.491 344.34C221.091 343.993 221.558 343.507 221.891 342.88C222.224 342.253 222.391 341.54 222.391 340.74C222.391 339.94 222.224 339.227 221.891 338.6C221.558 337.973 221.091 337.493 220.491 337.16C219.904 336.813 219.238 336.64 218.491 336.64C217.744 336.64 217.071 336.813 216.471 337.16C215.884 337.493 215.418 337.973 215.071 338.6C214.738 339.227 214.571 339.94 214.571 340.74C214.571 341.54 214.738 342.253 215.071 342.88C215.418 343.507 215.884 343.993 216.471 344.34C217.071 344.673 217.744 344.84 218.491 344.84ZM233.566 340.56C234.992 340.893 235.706 341.753 235.706 343.14C235.706 344.06 235.366 344.767 234.686 345.26C234.006 345.753 232.992 346 231.646 346H226.866V335.48H231.506C232.706 335.48 233.646 335.713 234.326 336.18C235.006 336.647 235.346 337.313 235.346 338.18C235.346 338.753 235.186 339.247 234.866 339.66C234.559 340.06 234.126 340.36 233.566 340.56ZM228.246 340.16H231.406C232.219 340.16 232.839 340.007 233.266 339.7C233.706 339.393 233.926 338.947 233.926 338.36C233.926 337.773 233.706 337.333 233.266 337.04C232.839 336.747 232.219 336.6 231.406 336.6H228.246V340.16ZM231.586 344.88C232.492 344.88 233.172 344.733 233.626 344.44C234.079 344.147 234.306 343.687 234.306 343.06C234.306 342.433 234.099 341.973 233.686 341.68C233.272 341.373 232.619 341.22 231.726 341.22H228.246V344.88H231.586ZM242.654 335.4C244.027 335.4 245.08 335.747 245.814 336.44C246.547 337.12 246.914 338.133 246.914 339.48V346H245.554V344.36C245.234 344.907 244.76 345.333 244.134 345.64C243.52 345.947 242.787 346.1 241.934 346.1C240.76 346.1 239.827 345.82 239.134 345.26C238.44 344.7 238.094 343.96 238.094 343.04C238.094 342.147 238.414 341.427 239.054 340.88C239.707 340.333 240.74 340.06 242.154 340.06H245.494V339.42C245.494 338.513 245.24 337.827 244.734 337.36C244.227 336.88 243.487 336.64 242.514 336.64C241.847 336.64 241.207 336.753 240.594 336.98C239.98 337.193 239.454 337.493 239.014 337.88L238.374 336.82C238.907 336.367 239.547 336.02 240.294 335.78C241.04 335.527 241.827 335.4 242.654 335.4ZM242.154 344.98C242.954 344.98 243.64 344.8 244.214 344.44C244.787 344.067 245.214 343.533 245.494 342.84V341.12H242.194C240.394 341.12 239.494 341.747 239.494 343C239.494 343.613 239.727 344.1 240.194 344.46C240.66 344.807 241.314 344.98 242.154 344.98ZM259.294 335.48V346H257.874V336.74H252.834L252.694 339.34C252.587 341.527 252.334 343.207 251.934 344.38C251.534 345.553 250.82 346.14 249.794 346.14C249.514 346.14 249.174 346.087 248.774 345.98L248.874 344.76C249.114 344.813 249.28 344.84 249.374 344.84C249.92 344.84 250.334 344.587 250.614 344.08C250.894 343.573 251.08 342.947 251.174 342.2C251.267 341.453 251.347 340.467 251.414 339.24L251.594 335.48H259.294ZM263.331 335.48H264.751V343.84L271.771 335.48H273.031V346H271.611V337.64L264.611 346H263.331V335.48ZM291.534 341.18H282.734C282.814 342.273 283.234 343.16 283.994 343.84C284.754 344.507 285.714 344.84 286.874 344.84C287.528 344.84 288.128 344.727 288.674 344.5C289.221 344.26 289.694 343.913 290.094 343.46L290.894 344.38C290.428 344.94 289.841 345.367 289.134 345.66C288.441 345.953 287.674 346.1 286.834 346.1C285.754 346.1 284.794 345.873 283.954 345.42C283.128 344.953 282.481 344.313 282.014 343.5C281.548 342.687 281.314 341.767 281.314 340.74C281.314 339.713 281.534 338.793 281.974 337.98C282.428 337.167 283.041 336.533 283.814 336.08C284.601 335.627 285.481 335.4 286.454 335.4C287.428 335.4 288.301 335.627 289.074 336.08C289.848 336.533 290.454 337.167 290.894 337.98C291.334 338.78 291.554 339.7 291.554 340.74L291.534 341.18ZM286.454 336.62C285.441 336.62 284.588 336.947 283.894 337.6C283.214 338.24 282.828 339.08 282.734 340.12H290.194C290.101 339.08 289.708 338.24 289.014 337.6C288.334 336.947 287.481 336.62 286.454 336.62ZM309.218 335.48V346H294.698V335.48H296.118V344.76H301.278V335.48H302.698V344.76H307.798V335.48H309.218ZM310.838 344.76V348.3H309.498V346H307.718V344.76H310.838ZM322.472 341.18H313.672C313.752 342.273 314.172 343.16 314.932 343.84C315.692 344.507 316.652 344.84 317.812 344.84C318.465 344.84 319.065 344.727 319.612 344.5C320.159 344.26 320.632 343.913 321.032 343.46L321.832 344.38C321.365 344.94 320.779 345.367 320.072 345.66C319.379 345.953 318.612 346.1 317.772 346.1C316.692 346.1 315.732 345.873 314.892 345.42C314.065 344.953 313.419 344.313 312.952 343.5C312.485 342.687 312.252 341.767 312.252 340.74C312.252 339.713 312.472 338.793 312.912 337.98C313.365 337.167 313.979 336.533 314.752 336.08C315.539 335.627 316.419 335.4 317.392 335.4C318.365 335.4 319.239 335.627 320.012 336.08C320.785 336.533 321.392 337.167 321.832 337.98C322.272 338.78 322.492 339.7 322.492 340.74L322.472 341.18ZM317.392 336.62C316.379 336.62 315.525 336.947 314.832 337.6C314.152 338.24 313.765 339.08 313.672 340.12H321.132C321.039 339.08 320.645 338.24 319.952 337.6C319.272 336.947 318.419 336.62 317.392 336.62ZM110.157 367.48H111.577V372.14H118.197V367.48H119.617V378H118.197V373.36H111.577V378H110.157V367.48ZM123.653 367.48H125.073V375.84L132.093 367.48H133.353V378H131.933V369.64L124.933 378H123.653V367.48ZM146.997 378.1C145.983 378.1 145.07 377.873 144.257 377.42C143.443 376.953 142.803 376.313 142.337 375.5C141.87 374.687 141.637 373.767 141.637 372.74C141.637 371.713 141.87 370.793 142.337 369.98C142.803 369.167 143.443 368.533 144.257 368.08C145.07 367.627 145.983 367.4 146.997 367.4C148.01 367.4 148.923 367.627 149.737 368.08C150.55 368.533 151.183 369.167 151.637 369.98C152.103 370.793 152.337 371.713 152.337 372.74C152.337 373.767 152.103 374.687 151.637 375.5C151.183 376.313 150.55 376.953 149.737 377.42C148.923 377.873 148.01 378.1 146.997 378.1ZM146.997 376.84C147.743 376.84 148.41 376.673 148.997 376.34C149.597 375.993 150.063 375.507 150.397 374.88C150.73 374.253 150.897 373.54 150.897 372.74C150.897 371.94 150.73 371.227 150.397 370.6C150.063 369.973 149.597 369.493 148.997 369.16C148.41 368.813 147.743 368.64 146.997 368.64C146.25 368.64 145.577 368.813 144.977 369.16C144.39 369.493 143.923 369.973 143.577 370.6C143.243 371.227 143.077 371.94 143.077 372.74C143.077 373.54 143.243 374.253 143.577 374.88C143.923 375.507 144.39 375.993 144.977 376.34C145.577 376.673 146.25 376.84 146.997 376.84ZM165.573 376.76V380.54H164.233V378H154.813V380.54H153.473V376.76H154.073C154.78 376.72 155.26 376.2 155.513 375.2C155.766 374.2 155.94 372.8 156.033 371L156.173 367.48H163.933V376.76H165.573ZM157.333 371.08C157.266 372.573 157.14 373.807 156.953 374.78C156.766 375.74 156.433 376.4 155.953 376.76H162.513V368.74H157.453L157.333 371.08ZM168.34 367.48H169.76V372.14H176.38V367.48H177.8V378H176.38V373.36H169.76V378H168.34V367.48ZM186.176 378.1C185.163 378.1 184.25 377.873 183.436 377.42C182.623 376.953 181.983 376.313 181.516 375.5C181.05 374.687 180.816 373.767 180.816 372.74C180.816 371.713 181.05 370.793 181.516 369.98C181.983 369.167 182.623 368.533 183.436 368.08C184.25 367.627 185.163 367.4 186.176 367.4C187.19 367.4 188.103 367.627 188.916 368.08C189.73 368.533 190.363 369.167 190.816 369.98C191.283 370.793 191.516 371.713 191.516 372.74C191.516 373.767 191.283 374.687 190.816 375.5C190.363 376.313 189.73 376.953 188.916 377.42C188.103 377.873 187.19 378.1 186.176 378.1ZM186.176 376.84C186.923 376.84 187.59 376.673 188.176 376.34C188.776 375.993 189.243 375.507 189.576 374.88C189.91 374.253 190.076 373.54 190.076 372.74C190.076 371.94 189.91 371.227 189.576 370.6C189.243 369.973 188.776 369.493 188.176 369.16C187.59 368.813 186.923 368.64 186.176 368.64C185.43 368.64 184.756 368.813 184.156 369.16C183.57 369.493 183.103 369.973 182.756 370.6C182.423 371.227 182.256 371.94 182.256 372.74C182.256 373.54 182.423 374.253 182.756 374.88C183.103 375.507 183.57 375.993 184.156 376.34C184.756 376.673 185.43 376.84 186.176 376.84ZM201.991 368.74H195.971V378H194.551V367.48H201.991V368.74ZM207.895 378.1C206.882 378.1 205.968 377.873 205.155 377.42C204.342 376.953 203.702 376.313 203.235 375.5C202.768 374.687 202.535 373.767 202.535 372.74C202.535 371.713 202.768 370.793 203.235 369.98C203.702 369.167 204.342 368.533 205.155 368.08C205.968 367.627 206.882 367.4 207.895 367.4C208.908 367.4 209.822 367.627 210.635 368.08C211.448 368.533 212.082 369.167 212.535 369.98C213.002 370.793 213.235 371.713 213.235 372.74C213.235 373.767 213.002 374.687 212.535 375.5C212.082 376.313 211.448 376.953 210.635 377.42C209.822 377.873 208.908 378.1 207.895 378.1ZM207.895 376.84C208.642 376.84 209.308 376.673 209.895 376.34C210.495 375.993 210.962 375.507 211.295 374.88C211.628 374.253 211.795 373.54 211.795 372.74C211.795 371.94 211.628 371.227 211.295 370.6C210.962 369.973 210.495 369.493 209.895 369.16C209.308 368.813 208.642 368.64 207.895 368.64C207.148 368.64 206.475 368.813 205.875 369.16C205.288 369.493 204.822 369.973 204.475 370.6C204.142 371.227 203.975 371.94 203.975 372.74C203.975 373.54 204.142 374.253 204.475 374.88C204.822 375.507 205.288 375.993 205.875 376.34C206.475 376.673 207.148 376.84 207.895 376.84ZM230.944 367.48V378H229.524V368.74H222.924V378H221.504V367.48H230.944ZM239.321 378.1C238.308 378.1 237.394 377.873 236.581 377.42C235.768 376.953 235.128 376.313 234.661 375.5C234.194 374.687 233.961 373.767 233.961 372.74C233.961 371.713 234.194 370.793 234.661 369.98C235.128 369.167 235.768 368.533 236.581 368.08C237.394 367.627 238.308 367.4 239.321 367.4C240.334 367.4 241.248 367.627 242.061 368.08C242.874 368.533 243.508 369.167 243.961 369.98C244.428 370.793 244.661 371.713 244.661 372.74C244.661 373.767 244.428 374.687 243.961 375.5C243.508 376.313 242.874 376.953 242.061 377.42C241.248 377.873 240.334 378.1 239.321 378.1ZM239.321 376.84C240.068 376.84 240.734 376.673 241.321 376.34C241.921 375.993 242.388 375.507 242.721 374.88C243.054 374.253 243.221 373.54 243.221 372.74C243.221 371.94 243.054 371.227 242.721 370.6C242.388 369.973 241.921 369.493 241.321 369.16C240.734 368.813 240.068 368.64 239.321 368.64C238.574 368.64 237.901 368.813 237.301 369.16C236.714 369.493 236.248 369.973 235.901 370.6C235.568 371.227 235.401 371.94 235.401 372.74C235.401 373.54 235.568 374.253 235.901 374.88C236.248 375.507 236.714 375.993 237.301 376.34C237.901 376.673 238.574 376.84 239.321 376.84ZM252.096 378.1C251.056 378.1 250.122 377.873 249.296 377.42C248.482 376.967 247.842 376.333 247.376 375.52C246.909 374.693 246.676 373.767 246.676 372.74C246.676 371.713 246.909 370.793 247.376 369.98C247.842 369.167 248.482 368.533 249.296 368.08C250.122 367.627 251.056 367.4 252.096 367.4C253.002 367.4 253.809 367.58 254.516 367.94C255.236 368.287 255.802 368.8 256.216 369.48L255.156 370.2C254.809 369.68 254.369 369.293 253.836 369.04C253.302 368.773 252.722 368.64 252.096 368.64C251.336 368.64 250.649 368.813 250.036 369.16C249.436 369.493 248.962 369.973 248.616 370.6C248.282 371.227 248.116 371.94 248.116 372.74C248.116 373.553 248.282 374.273 248.616 374.9C248.962 375.513 249.436 375.993 250.036 376.34C250.649 376.673 251.336 376.84 252.096 376.84C252.722 376.84 253.302 376.713 253.836 376.46C254.369 376.207 254.809 375.82 255.156 375.3L256.216 376.02C255.802 376.7 255.236 377.22 254.516 377.58C253.796 377.927 252.989 378.1 252.096 378.1ZM266.17 368.74H262.19V378H260.77V368.74H256.79V367.48H266.17V368.74ZM271.843 367.4C273.216 367.4 274.27 367.747 275.003 368.44C275.736 369.12 276.103 370.133 276.103 371.48V378H274.743V376.36C274.423 376.907 273.95 377.333 273.323 377.64C272.71 377.947 271.976 378.1 271.123 378.1C269.95 378.1 269.016 377.82 268.323 377.26C267.63 376.7 267.283 375.96 267.283 375.04C267.283 374.147 267.603 373.427 268.243 372.88C268.896 372.333 269.93 372.06 271.343 372.06H274.683V371.42C274.683 370.513 274.43 369.827 273.923 369.36C273.416 368.88 272.676 368.64 271.703 368.64C271.036 368.64 270.396 368.753 269.783 368.98C269.17 369.193 268.643 369.493 268.203 369.88L267.563 368.82C268.096 368.367 268.736 368.02 269.483 367.78C270.23 367.527 271.016 367.4 271.843 367.4ZM271.343 376.98C272.143 376.98 272.83 376.8 273.403 376.44C273.976 376.067 274.403 375.533 274.683 374.84V373.12H271.383C269.583 373.12 268.683 373.747 268.683 375C268.683 375.613 268.916 376.1 269.383 376.46C269.85 376.807 270.503 376.98 271.343 376.98Z" fill="#6F7985"/>
</svg>
