<svg width="1090" height="638" viewBox="0 0 1090 638" fill="none" xmlns="http://www.w3.org/2000/svg">
<path d="M30.224 347.142L4.64809 478.441C3.2116 519.384 8.45158 536.741 34.7705 546.675C36.6725 547.392 38.6548 547.885 40.6556 548.244L184.998 574.201C205.203 577.968 195.683 611.856 194.051 632.803C193.823 635.735 196.128 638.406 198.813 637.207C213.61 630.603 222.02 584.982 251.002 585.822L379.292 608.6C418.65 614.992 467.06 592.7 468.022 543.653C468.229 533.122 461.54 524.279 452.202 519.404C440.043 513.057 427.786 504.918 431.352 487.738C435.274 468.839 452.985 470.899 466.611 467.598C473.229 465.994 478.293 460.919 481.339 454.829C491.574 434.359 492.162 404.036 465.261 374.475C458.696 367.261 449.541 363.132 439.957 361.32L308.767 336.521C304.935 335.796 302.208 332.416 302.032 328.52C301.22 310.568 295.919 284.132 278.891 284.132C262.344 284.132 250.064 304.103 244.146 318.409C242.602 322.142 238.723 324.48 234.753 323.736L167.335 311.094C77.8547 293.6 61.2567 297.105 39.6346 325.464C34.798 331.807 31.7491 339.312 30.224 347.142Z" fill="#EB9A7A"/>
<path d="M549.416 345.493C549.416 361.763 500.906 355.255 503.399 382.681C505.755 408.599 519.847 401.307 544.927 412.196C547.706 413.402 549.416 416.171 549.416 419.202V495.732C549.416 502.359 554.788 507.727 561.416 507.727H831.096C846.351 507.727 864.468 562.499 878.546 569.322C879.795 569.927 880.82 568.658 880.422 567.329C876.354 553.762 866.519 507.727 900.819 507.727H1002.7C1009.33 507.727 1014.7 502.354 1014.7 495.727V265.452C1014.7 258.825 1009.33 253.452 1002.7 253.452H832.49C818.081 253.452 813.433 301.332 793.446 301.332C773.458 301.332 770.205 266.468 758.119 253.452H561.416C554.788 253.452 549.416 258.825 549.416 265.452V345.493Z" fill="#37668A"/>
<path d="M608.448 0.107257C564.941 -1.75215 550.585 21.0256 549.346 32.647V88.4481C549.346 92.2303 551.991 95.4563 555.712 96.1362C570.702 98.8755 596.5 104.059 596.5 121.5C596.5 138.54 574.964 148.839 556.67 153.155C553.003 154.02 550.224 157.114 550.082 160.88C549.367 179.933 548.691 211.593 550.346 224.166C552.205 238.298 568.164 249.578 575.911 253.452H752.077C772.994 253.452 761.301 301.5 794.5 301.5C820.995 301.5 812.038 259.96 833.885 253.452H984.486C1010.52 253.452 1018.42 230.209 1018.42 181.4C1018.42 162.806 1090 175.357 1090 167.919C1090 158.622 1032.83 146.071 1018.42 130.266V57.2842C1019.91 14.8896 1002.61 0.107257 971.936 0.107257C868.901 0.882012 651.955 1.96667 608.448 0.107257Z" fill="#FFD687"/>
<path d="M79.4002 110.893L17.0955 138.778C13.1573 140.54 14.3964 146.663 18.7084 146.813C35.8747 147.41 61.1746 148.936 78.3703 152.837C81.8202 153.619 84.1322 156.725 84.1322 160.263V245.349C84.1322 249.768 87.7139 253.345 92.1322 253.345H280.286C301.203 253.345 287.258 206.395 323.049 206.395C347.684 206.395 339.783 253.345 357.446 253.345H542.004C546.374 253.345 549.935 249.838 550.003 245.469L551.275 163.628C551.275 143.64 597.757 156.655 597.757 122.256C595.596 106.856 584.308 101.32 568.849 98.5518C558.184 96.6424 549.881 87.9464 549.881 77.1126V9.85941C549.881 5.44113 546.299 1.85941 541.881 1.85941H92.1322C87.7139 1.85941 84.1322 5.44112 84.1322 9.8594V103.591C84.1322 106.745 82.2791 109.605 79.4002 110.893Z" fill="#35936B"/>
<ellipse cx="481.552" cy="207.324" rx="3.71855" ry="5.57823" fill="#87FFCD"/>
<ellipse cx="585.672" cy="207.324" rx="3.71854" ry="5.57823" fill="#FA9B0E"/>
<ellipse cx="585.672" cy="286.349" rx="3.71854" ry="5.57823" fill="white"/>
<ellipse rx="3.71857" ry="5.57821" transform="matrix(0.965921 0.258837 -0.258801 0.965931 425.387 402.535)" fill="#BA6645"/>
<ellipse cx="497.356" cy="207.324" rx="3.71854" ry="5.57823" fill="#87FFCD"/>
<ellipse cx="601.475" cy="207.324" rx="3.71854" ry="5.57823" fill="#FA9B0E"/>
<ellipse cx="601.475" cy="286.349" rx="3.71854" ry="5.57823" fill="white"/>
<ellipse rx="3.71857" ry="5.57821" transform="matrix(0.965921 0.258837 -0.258801 0.965931 440.652 406.626)" fill="#BA6645"/>
<path fill-rule="evenodd" clip-rule="evenodd" d="M495.876 217.838C496.744 218.047 497.279 218.921 497.069 219.79C496.671 221.442 495.368 222.459 494.053 223.026C492.722 223.6 491.133 223.836 489.608 223.816C488.078 223.797 486.487 223.519 485.135 222.956C483.823 222.409 482.482 221.481 481.904 219.998C481.58 219.165 481.992 218.228 482.824 217.903C483.657 217.579 484.595 217.991 484.919 218.823C485.038 219.13 485.441 219.579 486.379 219.97C487.279 220.345 488.448 220.566 489.649 220.581C490.855 220.596 491.967 220.402 492.772 220.055C493.592 219.701 493.858 219.306 493.924 219.031C494.134 218.163 495.008 217.629 495.876 217.838Z" fill="#87FFCD"/>
<path fill-rule="evenodd" clip-rule="evenodd" d="M599.995 217.838C600.864 218.047 601.398 218.921 601.189 219.79C600.79 221.442 599.488 222.459 598.172 223.026C596.842 223.6 595.252 223.836 593.727 223.816C592.197 223.797 590.606 223.519 589.255 222.956C587.942 222.409 586.601 221.481 586.024 219.998C585.699 219.165 586.111 218.228 586.944 217.903C587.776 217.579 588.714 217.991 589.038 218.823C589.158 219.13 589.56 219.579 590.499 219.97C591.399 220.345 592.568 220.566 593.768 220.581C594.974 220.596 596.087 220.402 596.891 220.055C597.711 219.701 597.977 219.306 598.044 219.031C598.253 218.163 599.127 217.629 599.995 217.838Z" fill="#FA9B0E"/>
<path fill-rule="evenodd" clip-rule="evenodd" d="M599.995 296.863C600.864 297.072 601.398 297.946 601.189 298.815C600.79 300.467 599.488 301.484 598.172 302.051C596.842 302.625 595.252 302.861 593.727 302.841C592.197 302.822 590.606 302.544 589.255 301.981C587.942 301.434 586.601 300.506 586.024 299.023C585.699 298.19 586.111 297.253 586.944 296.928C587.776 296.604 588.714 297.016 589.038 297.848C589.158 298.155 589.56 298.604 590.499 298.995C591.399 299.37 592.568 299.591 593.768 299.606C594.974 299.621 596.087 299.427 596.891 299.08C597.711 298.726 597.977 298.331 598.044 298.056C598.253 297.188 599.127 296.654 599.995 296.863Z" fill="white"/>
<path fill-rule="evenodd" clip-rule="evenodd" d="M436.502 416.398C437.286 416.825 437.576 417.807 437.149 418.592C436.337 420.085 434.815 420.73 433.398 420.937C431.964 421.147 430.368 420.963 428.9 420.55C427.427 420.136 425.962 419.456 424.803 418.562C423.676 417.694 422.621 416.45 422.447 414.868C422.349 413.98 422.99 413.181 423.878 413.083C424.766 412.985 425.565 413.626 425.663 414.514C425.699 414.841 425.972 415.378 426.777 415.999C427.549 416.594 428.621 417.111 429.777 417.436C430.938 417.763 432.063 417.863 432.93 417.736C433.813 417.607 434.172 417.294 434.308 417.046C434.735 416.261 435.717 415.971 436.502 416.398Z" fill="#BA6645"/>
</svg>
